<svg xmlns="http://www.w3.org/2000/svg" xmlns:xlink="http://www.w3.org/1999/xlink" id="&#x143;&#xEB;&#xEE;&#xE9;_1" x="0px" y="0px" viewBox="0 0 4000 4000" style="enable-background:new 0 0 4000 4000;" xml:space="preserve"><style type="text/css">	.st0{fill:#142C61;}</style><g>	<path class="st0" d="M118.6,1191.4h230v386.5c0,40.6,33,73.6,73.6,73.6c40.6,0,73.6-33,73.6-73.6v-460.2c0-40.6-33-73.6-73.6-73.6  H246.1L422.2,739l239.9,415.5c13.1,22.7,37.6,36.8,63.9,36.8c12.8,0,25.5-3.4,36.7-9.9c35.2-20.3,47.3-65.4,27-100.6L486,554.9  c-13.1-22.7-37.5-36.8-63.8-36.8c-26.2,0-50.7,14.1-63.8,36.8l-303.7,526c-13.1,22.7-13.1,50.9,0,73.6  C67.9,1177.3,92.3,1191.4,118.6,1191.4z"></path>	<path class="st0" d="M431,1870.3c-40.6,0-73.6,33-73.6,73.6l0,105c0,40.6,33,73.6,73.6,73.6c40.6,0,73.6-33,73.6-73.6l0-105  C504.7,1903.3,471.6,1870.3,431,1870.3z"></path>	<path class="st0" d="M775.3,1579.4c-13.1,22.7-13.1,50.9,0,73.6l303.7,526c13.1,22.7,37.5,36.8,63.8,36.8  c26.2,0,50.7-14.1,63.8-36.8l303.7-526c9.8-17,12.4-36.9,7.4-55.9c-5.1-19-17.3-34.9-34.3-44.7c-11.2-6.5-23.9-9.9-36.7-9.9  c-26.3,0-50.7,14.1-63.9,36.8l-239.9,415.5l-176.1-305.1h176.1c40.6,0,73.6-33,73.6-73.6v-490.1c0-40.6-33-73.6-73.6-73.6  c-40.6,0-73.6,33-73.6,73.6v416.5h-230C812.9,1542.6,788.5,1556.7,775.3,1579.4z"></path>	<path class="st0" d="M1142.8,895.4c40.6,0,73.6-33,73.6-73.6v-105c0-40.6-33-73.6-73.6-73.6c-40.6,0-73.6,33-73.6,73.6l0,105  C1069.1,862.3,1102.2,895.4,1142.8,895.4z"></path>	<path class="st0" d="M3031.9,3200.6L3031.9,3200.6c-33.3-27-82.3-22-109.4,11.2c-1.6,2-41,50-108,98.5  c-84.2,60.9-169.5,92.3-253.7,93.3c-1.4,0-2.9,0-4.3,0c-121.4,0-237.8-64.5-346-191.7c-111.6-131.3-233-196.4-360.7-193.5  c-109,2.6-200.8,55.5-258.6,99.4c-55.9,42.5-90.7,83.9-97.8,92.6l0,0c-0.4,0.5-0.8,0.9-1.2,1.5l-0.6,0.7  c-4.8,5.7-44.2,52.1-107.3,97.6c-84.2,60.9-169.5,92.3-253.7,93.3c-1.5,0-2.9,0-4.4,0c-121.4,0-237.8-64.5-346-191.7  c-111.6-131.3-233-196.4-360.7-193.5c-109,2.6-200.8,55.5-258.6,99.4c-61.9,47-98.8,93.8-99.2,94.3c-12.7,16.4-18.2,36.8-15.6,57.4  s13.1,38.9,29.6,51.6c33.4,25.8,81.9,20,108.3-13c1.7-2.1,28.1-34,71-66.6c39.5-30.1,100.8-66.2,168.2-67.8  c78.4-1.9,158.7,44.9,238.6,138.8c139.1,163.6,295.3,246.5,464.4,246.5c2.2,0,4.4,0,6.4,0c115.1-1.5,233.6-43.9,342.7-122.8  c81.8-59.1,132-119.6,137.5-126.4c0.2-0.3,0.5-0.6,0.7-0.9c0.2-0.3,0.5-0.6,0.7-0.9c1.9-2.4,28.1-34,71-66.5  c39.5-30.1,100.8-66.2,168.2-67.8c78.5-1.7,158.8,44.9,238.6,138.8c139.1,163.6,295.3,246.5,464.4,246.5c2.2,0,4.4,0,6.4,0  c115.1-1.5,233.6-43.9,342.7-122.8c81.8-59.1,132-119.6,137.5-126.4c13.1-16.1,19.2-36.4,17-57  C3058,3232.3,3048,3213.7,3031.9,3200.6z"></path>	<path class="st0" d="M3031.9,2497.1L3031.9,2497.1c-33.3-27-82.3-22-109.4,11.2c-1.6,2-41,50-108,98.5  c-84.2,60.9-169.5,92.3-253.5,93.3c-1.5,0-3.1,0-4.6,0c-121.4,0-237.8-64.5-346-191.7c-111.6-131.3-233-196.3-360.7-193.5  c-109,2.6-200.8,55.5-258.6,99.4c-55.5,42.2-90.3,83.4-97.7,92.4l0,0c-0.5,0.6-1,1.1-1.4,1.7c-0.2,0.3-0.4,0.5-0.6,0.8  c-5,6-44.5,52.2-107.2,97.5c-84.2,60.9-169.5,92.3-253.5,93.3c-1.5,0-3.1,0-4.6,0c-121.4,0-237.8-64.5-346-191.7  c-109.2-128.5-227.8-193.6-352.4-193.6c-2.7,0-5.5,0-8.3,0.1c-109,2.6-200.8,55.5-258.6,99.4c-61.9,47-98.8,93.8-99.2,94.3  c-12.7,16.4-18.2,36.8-15.6,57.4s13.1,38.9,29.6,51.6c33.4,25.8,81.9,20,108.3-13c1.6-2,27.9-33.8,71-66.6  c39.5-30.1,100.8-66.2,168.2-67.8c78.5-1.8,158.8,44.9,238.6,138.8c139.1,163.6,295.3,246.5,464.4,246.5c2.1,0,4.2,0,6.4,0  c115.1-1.5,233.6-43.9,342.7-122.8c81.8-59.1,132-119.6,137.5-126.4l0.6-0.7c0.3-0.3,0.5-0.7,0.8-1c1.9-2.3,28.2-34,70.9-66.5  c39.5-30.1,100.8-66.2,168.2-67.8c1.5,0,3-0.1,4.4-0.1c77.1,0,155.8,46.7,234.2,138.8c139.1,163.6,295.3,246.5,464.4,246.5  c2.1,0,4.2,0,6.4,0c115.1-1.5,233.6-43.9,342.7-122.8c81.7-59.1,132-119.6,137.5-126.4c13.1-16.1,19.2-36.4,17-57  C3058,2528.8,3048,2510.2,3031.9,2497.1z"></path>	<path class="st0" d="M3031.9,1793.6L3031.9,1793.6c-33.3-27-82.3-22-109.4,11.2c-1.6,2-41,50.1-108,98.5  c-84.2,60.9-169.5,92.3-253.6,93.3c-123.1,1.6-240.9-62.9-350.5-191.7c-111.6-131.3-232.9-196.4-360.6-193.5  c-20.8,0.5-40.1,9-54.4,24c-14.3,15-22,34.7-21.5,55.5c1,42.8,36.7,76.8,79.5,75.9c78.5-1.8,158.8,44.9,238.6,138.8  c139.1,163.6,295.3,246.5,464.4,246.5c2.1,0,4.2,0,6.4,0c115.1-1.5,233.6-43.9,342.7-122.8c81.7-59.1,132-119.6,137.5-126.4  c13.1-16.1,19.2-36.4,17-57C3058,1825.3,3048,1806.8,3031.9,1793.6z"></path>	<path class="st0" d="M3605.1,1085.6h-105c-42.9,0-77.7,34.9-77.7,77.7c0,42.9,34.9,77.7,77.7,77.7h105c42.9,0,77.7-34.9,77.7-77.7  C3682.8,1120.5,3648,1085.6,3605.1,1085.6z"></path>	<path class="st0" d="M3605.1,674.5h-265.8c-42.9,0-77.7,34.9-77.7,77.7s34.9,77.7,77.7,77.7h265.8c42.9,0,77.7-34.9,77.7-77.7  S3648,674.5,3605.1,674.5z"></path>	<path class="st0" d="M3605.1,1907.9h-105c-42.9,0-77.7,34.9-77.7,77.7c0,42.9,34.9,77.7,77.7,77.7h105c42.9,0,77.7-34.9,77.7-77.7  C3682.8,1942.7,3648,1907.9,3605.1,1907.9z"></path>	<path class="st0" d="M3605.1,1496.8h-265.8c-42.9,0-77.7,34.9-77.7,77.7s34.9,77.7,77.7,77.7h265.8c42.9,0,77.7-34.9,77.7-77.7  S3648,1496.8,3605.1,1496.8z"></path>	<path class="st0" d="M3605.1,2319h-265.8c-42.9,0-77.7,34.9-77.7,77.7c0,42.9,34.9,77.7,77.7,77.7h265.8  c42.9,0,77.7-34.9,77.7-77.7C3682.8,2353.8,3648,2319,3605.1,2319z"></path>	<path class="st0" d="M3605.1,3141.2h-265.8c-42.9,0-77.7,34.9-77.7,77.7c0,42.9,34.9,77.7,77.7,77.7h265.8  c42.9,0,77.7-34.9,77.7-77.7C3682.8,3176,3648,3141.2,3605.1,3141.2z"></path>	<path class="st0" d="M3605.1,2730.1h-105c-42.9,0-77.7,34.9-77.7,77.7c0,42.9,34.9,77.7,77.7,77.7h105c42.9,0,77.7-34.9,77.7-77.7  C3682.8,2764.9,3648,2730.1,3605.1,2730.1z"></path>	<path class="st0" d="M3877.3,440.9c-42.9,0-77.7,34.9-77.7,77.7v2962.7c0,42.9,34.9,77.7,77.7,77.7c42.9,0,77.7-34.9,77.7-77.7  V518.6C3955.1,475.8,3920.2,440.9,3877.3,440.9z"></path></g></svg>